<?xml version="1.0" standalone="no"?>
<!DOCTYPE svg PUBLIC "-//W3C//DTD SVG 20010904//EN"
 "http://www.w3.org/TR/2001/REC-SVG-20010904/DTD/svg10.dtd">
<svg version="1.0" xmlns="http://www.w3.org/2000/svg"
 width="980.000000pt" height="980.000000pt" viewBox="0 0 980.000000 980.000000"
 preserveAspectRatio="xMidYMid meet">

<g transform="translate(0.000000,980.000000) scale(0.100000,-0.100000)"
fill="#000000" stroke="none">
<path d="M4640 9793 c-381 -26 -614 -62 -940 -143 -608 -152 -1205 -435 -1715
-815 -390 -289 -785 -690 -1063 -1078 -728 -1016 -1039 -2244 -881 -3482 118
-922 488 -1770 1094 -2507 140 -170 461 -491 633 -633 1073 -885 2423 -1273
3787 -1090 1037 140 1999 607 2750 1337 299 290 537 585 767 951 101 161 313
582 384 762 615 1567 393 3326 -591 4680 -150 206 -300 380 -500 581 -392 393
-790 682 -1275 925 -601 300 -1200 462 -1880 509 -133 9 -461 11 -570 3z m586
-413 c988 -78 1896 -458 2624 -1097 869 -764 1397 -1787 1522 -2948 20 -183
17 -733 -5 -917 -107 -899 -445 -1698 -1011 -2385 -115 -139 -450 -474 -589
-589 -698 -575 -1520 -918 -2432 -1016 -183 -20 -733 -17 -917 5 -562 67
-1045 211 -1533 457 -314 158 -583 334 -852 555 -139 114 -474 449 -589 588
-575 698 -918 1520 -1016 2432 -17 159 -17 711 0 870 102 953 477 1818 1089
2515 696 792 1620 1309 2646 1480 95 15 228 33 297 39 69 6 141 13 160 15 86
8 489 5 606 -4z"/>
<path d="M3805 7266 c-137 -44 -218 -133 -244 -271 -9 -44 -11 -635 -9 -2220
l3 -2160 27 -50 c72 -138 229 -220 355 -186 53 14 -21 -41 1623 1214 875 668
1360 1044 1387 1077 107 126 95 321 -26 436 -25 24 -588 443 -1251 930 -663
488 -1306 961 -1428 1052 -123 91 -240 171 -260 178 -46 17 -125 16 -177 0z"/>
</g>
</svg>
