<?xml version="1.0" encoding="UTF-8"?>
<svg xmlns="http://www.w3.org/2000/svg" xmlns:xlink="http://www.w3.org/1999/xlink" width="750pt" height="507.000007pt" viewBox="0 0 750 507.000007" version="1.2">
<defs>
<clipPath id="clip1">
  <path d="M 1 7 L 734 7 L 734 506 L 1 506 Z M 1 7 "/>
</clipPath>
<clipPath id="clip2">
  <path d="M 733.402344 121.882812 C 728.339844 60.195312 677.402344 11.027344 615.746094 7.746094 C 568.089844 5.066406 525.792969 29.203125 502.558594 66.453125 C 490.941406 84.929688 468.007812 92.675781 447.15625 85.824219 C 431.070312 80.460938 413.496094 77.480469 395.625 77.480469 C 343.199219 77.480469 296.4375 101.914062 266.054688 140.359375 C 248.480469 162.707031 219.886719 172.839844 191.886719 168.371094 C 179.675781 166.285156 166.867188 165.6875 154.058594 166.582031 C 70.953125 172.242188 4.828125 240.484375 1.253906 323.625 C -2.917969 418.09375 72.441406 495.871094 165.972656 495.871094 C 204.695312 495.871094 240.140625 482.460938 268.140625 460.40625 C 296.4375 438.058594 336.351562 439.25 363.15625 463.386719 C 394.433594 491.398438 436.433594 507.789062 482.304688 505.40625 C 566.597656 500.9375 634.808594 431.800781 638.085938 347.464844 C 638.382812 337.632812 638.085938 328.394531 636.894531 318.859375 C 632.722656 286.972656 647.023438 255.980469 674.425781 238.996094 C 712.851562 215.453125 737.574219 171.347656 733.402344 121.882812 Z M 733.402344 121.882812 "/>
</clipPath>
<linearGradient id="linear0" gradientUnits="userSpaceOnUse" x1="-0.0730383" y1="86.113998" x2="247.299991" y2="86.113998" gradientTransform="matrix(2.978637,0,0,2.979988,0.955738,0.0000199606)">
<stop offset="0" style="stop-color:rgb(0%,39.99939%,100%);stop-opacity:1;"/>
<stop offset="0.00390625" style="stop-color:rgb(0.00152588%,40.222168%,99.761963%);stop-opacity:1;"/>
<stop offset="0.0078125" style="stop-color:rgb(0.00457764%,40.446472%,99.525452%);stop-opacity:1;"/>
<stop offset="0.0117188" style="stop-color:rgb(0.00762939%,40.678406%,99.278259%);stop-opacity:1;"/>
<stop offset="0.015625" style="stop-color:rgb(0.012207%,40.911865%,99.032593%);stop-opacity:1;"/>
<stop offset="0.0195313" style="stop-color:rgb(0.0152588%,41.143799%,98.786926%);stop-opacity:1;"/>
<stop offset="0.0234375" style="stop-color:rgb(0.0183105%,41.375732%,98.54126%);stop-opacity:1;"/>
<stop offset="0.0273438" style="stop-color:rgb(0.0213623%,41.607666%,98.294067%);stop-opacity:1;"/>
<stop offset="0.03125" style="stop-color:rgb(0.0244141%,41.841125%,98.048401%);stop-opacity:1;"/>
<stop offset="0.0351563" style="stop-color:rgb(0.0274658%,42.073059%,97.801208%);stop-opacity:1;"/>
<stop offset="0.0390625" style="stop-color:rgb(0.0305176%,42.306519%,97.555542%);stop-opacity:1;"/>
<stop offset="0.0429688" style="stop-color:rgb(0.0335693%,42.538452%,97.309875%);stop-opacity:1;"/>
<stop offset="0.046875" style="stop-color:rgb(0.0366211%,42.770386%,97.064209%);stop-opacity:1;"/>
<stop offset="0.0507813" style="stop-color:rgb(0.0396729%,43.002319%,96.817017%);stop-opacity:1;"/>
<stop offset="0.0546875" style="stop-color:rgb(0.0427246%,43.235779%,96.57135%);stop-opacity:1;"/>
<stop offset="0.0585938" style="stop-color:rgb(0.0457764%,43.467712%,96.324158%);stop-opacity:1;"/>
<stop offset="0.0625" style="stop-color:rgb(0.0488281%,43.701172%,96.078491%);stop-opacity:1;"/>
<stop offset="0.0664062" style="stop-color:rgb(0.0518799%,43.933105%,95.832825%);stop-opacity:1;"/>
<stop offset="0.0703125" style="stop-color:rgb(0.0549316%,44.165039%,95.587158%);stop-opacity:1;"/>
<stop offset="0.0742188" style="stop-color:rgb(0.0579834%,44.396973%,95.339966%);stop-opacity:1;"/>
<stop offset="0.078125" style="stop-color:rgb(0.062561%,44.630432%,95.094299%);stop-opacity:1;"/>
<stop offset="0.0820313" style="stop-color:rgb(0.0656128%,44.862366%,94.847107%);stop-opacity:1;"/>
<stop offset="0.0859375" style="stop-color:rgb(0.0686646%,45.095825%,94.60144%);stop-opacity:1;"/>
<stop offset="0.0898438" style="stop-color:rgb(0.0717163%,45.327759%,94.354248%);stop-opacity:1;"/>
<stop offset="0.09375" style="stop-color:rgb(0.0747681%,45.559692%,94.108582%);stop-opacity:1;"/>
<stop offset="0.0976562" style="stop-color:rgb(0.0778198%,45.791626%,93.862915%);stop-opacity:1;"/>
<stop offset="0.101562" style="stop-color:rgb(0.0808716%,46.025085%,93.617249%);stop-opacity:1;"/>
<stop offset="0.105469" style="stop-color:rgb(0.0839233%,46.257019%,93.370056%);stop-opacity:1;"/>
<stop offset="0.109375" style="stop-color:rgb(0.0869751%,46.490479%,93.12439%);stop-opacity:1;"/>
<stop offset="0.113281" style="stop-color:rgb(0.0900269%,46.722412%,92.877197%);stop-opacity:1;"/>
<stop offset="0.117188" style="stop-color:rgb(0.0930786%,46.954346%,92.631531%);stop-opacity:1;"/>
<stop offset="0.121094" style="stop-color:rgb(0.0961304%,47.186279%,92.385864%);stop-opacity:1;"/>
<stop offset="0.125" style="stop-color:rgb(0.0991821%,47.419739%,92.140198%);stop-opacity:1;"/>
<stop offset="0.128906" style="stop-color:rgb(0.102234%,47.651672%,91.893005%);stop-opacity:1;"/>
<stop offset="0.132812" style="stop-color:rgb(0.105286%,47.885132%,91.647339%);stop-opacity:1;"/>
<stop offset="0.136719" style="stop-color:rgb(0.108337%,48.117065%,91.400146%);stop-opacity:1;"/>
<stop offset="0.140625" style="stop-color:rgb(0.111389%,48.348999%,91.15448%);stop-opacity:1;"/>
<stop offset="0.144531" style="stop-color:rgb(0.114441%,48.580933%,90.908813%);stop-opacity:1;"/>
<stop offset="0.148438" style="stop-color:rgb(0.119019%,48.814392%,90.663147%);stop-opacity:1;"/>
<stop offset="0.152344" style="stop-color:rgb(0.12207%,49.046326%,90.415955%);stop-opacity:1;"/>
<stop offset="0.15625" style="stop-color:rgb(0.125122%,49.279785%,90.170288%);stop-opacity:1;"/>
<stop offset="0.160156" style="stop-color:rgb(0.128174%,49.511719%,89.923096%);stop-opacity:1;"/>
<stop offset="0.164063" style="stop-color:rgb(0.131226%,49.743652%,89.677429%);stop-opacity:1;"/>
<stop offset="0.167969" style="stop-color:rgb(0.134277%,49.975586%,89.431763%);stop-opacity:1;"/>
<stop offset="0.171875" style="stop-color:rgb(0.137329%,50.209045%,89.186096%);stop-opacity:1;"/>
<stop offset="0.175781" style="stop-color:rgb(0.140381%,50.440979%,88.938904%);stop-opacity:1;"/>
<stop offset="0.179688" style="stop-color:rgb(0.143433%,50.674438%,88.693237%);stop-opacity:1;"/>
<stop offset="0.183594" style="stop-color:rgb(0.146484%,50.906372%,88.446045%);stop-opacity:1;"/>
<stop offset="0.1875" style="stop-color:rgb(0.149536%,51.139832%,88.200378%);stop-opacity:1;"/>
<stop offset="0.191406" style="stop-color:rgb(0.152588%,51.371765%,87.954712%);stop-opacity:1;"/>
<stop offset="0.195312" style="stop-color:rgb(0.15564%,51.603699%,87.709045%);stop-opacity:1;"/>
<stop offset="0.199219" style="stop-color:rgb(0.158691%,51.835632%,87.461853%);stop-opacity:1;"/>
<stop offset="0.203125" style="stop-color:rgb(0.161743%,52.069092%,87.216187%);stop-opacity:1;"/>
<stop offset="0.207031" style="stop-color:rgb(0.164795%,52.301025%,86.968994%);stop-opacity:1;"/>
<stop offset="0.210938" style="stop-color:rgb(0.169373%,52.534485%,86.723328%);stop-opacity:1;"/>
<stop offset="0.214844" style="stop-color:rgb(0.172424%,52.766418%,86.477661%);stop-opacity:1;"/>
<stop offset="0.21875" style="stop-color:rgb(0.175476%,52.998352%,86.231995%);stop-opacity:1;"/>
<stop offset="0.222656" style="stop-color:rgb(0.178528%,53.230286%,85.984802%);stop-opacity:1;"/>
<stop offset="0.226562" style="stop-color:rgb(0.18158%,53.463745%,85.739136%);stop-opacity:1;"/>
<stop offset="0.230469" style="stop-color:rgb(0.184631%,53.695679%,85.491943%);stop-opacity:1;"/>
<stop offset="0.234375" style="stop-color:rgb(0.187683%,53.929138%,85.246277%);stop-opacity:1;"/>
<stop offset="0.238281" style="stop-color:rgb(0.190735%,54.161072%,84.999084%);stop-opacity:1;"/>
<stop offset="0.242188" style="stop-color:rgb(0.193787%,54.393005%,84.753418%);stop-opacity:1;"/>
<stop offset="0.246094" style="stop-color:rgb(0.196838%,54.624939%,84.507751%);stop-opacity:1;"/>
<stop offset="0.25" style="stop-color:rgb(0.19989%,54.858398%,84.262085%);stop-opacity:1;"/>
<stop offset="0.253906" style="stop-color:rgb(0.202942%,55.090332%,84.014893%);stop-opacity:1;"/>
<stop offset="0.257812" style="stop-color:rgb(0.205994%,55.323792%,83.769226%);stop-opacity:1;"/>
<stop offset="0.261719" style="stop-color:rgb(0.209045%,55.555725%,83.522034%);stop-opacity:1;"/>
<stop offset="0.265625" style="stop-color:rgb(0.212097%,55.787659%,83.276367%);stop-opacity:1;"/>
<stop offset="0.269531" style="stop-color:rgb(0.215149%,56.019592%,83.030701%);stop-opacity:1;"/>
<stop offset="0.273438" style="stop-color:rgb(0.218201%,56.253052%,82.785034%);stop-opacity:1;"/>
<stop offset="0.277344" style="stop-color:rgb(0.221252%,56.484985%,82.537842%);stop-opacity:1;"/>
<stop offset="0.28125" style="stop-color:rgb(0.22583%,56.718445%,82.292175%);stop-opacity:1;"/>
<stop offset="0.285156" style="stop-color:rgb(0.228882%,56.950378%,82.044983%);stop-opacity:1;"/>
<stop offset="0.289063" style="stop-color:rgb(0.231934%,57.182312%,81.799316%);stop-opacity:1;"/>
<stop offset="0.292969" style="stop-color:rgb(0.234985%,57.414246%,81.55365%);stop-opacity:1;"/>
<stop offset="0.296875" style="stop-color:rgb(0.238037%,57.647705%,81.307983%);stop-opacity:1;"/>
<stop offset="0.300781" style="stop-color:rgb(0.241089%,57.879639%,81.060791%);stop-opacity:1;"/>
<stop offset="0.304688" style="stop-color:rgb(0.244141%,58.113098%,80.815125%);stop-opacity:1;"/>
<stop offset="0.308594" style="stop-color:rgb(0.247192%,58.345032%,80.567932%);stop-opacity:1;"/>
<stop offset="0.3125" style="stop-color:rgb(0.250244%,58.576965%,80.322266%);stop-opacity:1;"/>
<stop offset="0.316406" style="stop-color:rgb(0.253296%,58.808899%,80.076599%);stop-opacity:1;"/>
<stop offset="0.320313" style="stop-color:rgb(0.256348%,59.042358%,79.830933%);stop-opacity:1;"/>
<stop offset="0.324219" style="stop-color:rgb(0.259399%,59.274292%,79.58374%);stop-opacity:1;"/>
<stop offset="0.328125" style="stop-color:rgb(0.262451%,59.507751%,79.338074%);stop-opacity:1;"/>
<stop offset="0.332031" style="stop-color:rgb(0.265503%,59.739685%,79.090881%);stop-opacity:1;"/>
<stop offset="0.335938" style="stop-color:rgb(0.268555%,59.971619%,78.845215%);stop-opacity:1;"/>
<stop offset="0.339844" style="stop-color:rgb(0.271606%,60.203552%,78.599548%);stop-opacity:1;"/>
<stop offset="0.34375" style="stop-color:rgb(0.276184%,60.437012%,78.353882%);stop-opacity:1;"/>
<stop offset="0.347656" style="stop-color:rgb(0.279236%,60.668945%,78.106689%);stop-opacity:1;"/>
<stop offset="0.351563" style="stop-color:rgb(0.282288%,60.902405%,77.861023%);stop-opacity:1;"/>
<stop offset="0.355469" style="stop-color:rgb(0.285339%,61.134338%,77.613831%);stop-opacity:1;"/>
<stop offset="0.359375" style="stop-color:rgb(0.288391%,61.366272%,77.368164%);stop-opacity:1;"/>
<stop offset="0.363281" style="stop-color:rgb(0.291443%,61.598206%,77.122498%);stop-opacity:1;"/>
<stop offset="0.367188" style="stop-color:rgb(0.294495%,61.831665%,76.876831%);stop-opacity:1;"/>
<stop offset="0.371094" style="stop-color:rgb(0.297546%,62.063599%,76.629639%);stop-opacity:1;"/>
<stop offset="0.375" style="stop-color:rgb(0.300598%,62.297058%,76.383972%);stop-opacity:1;"/>
<stop offset="0.378906" style="stop-color:rgb(0.30365%,62.528992%,76.13678%);stop-opacity:1;"/>
<stop offset="0.382813" style="stop-color:rgb(0.306702%,62.760925%,75.891113%);stop-opacity:1;"/>
<stop offset="0.386719" style="stop-color:rgb(0.309753%,62.992859%,75.643921%);stop-opacity:1;"/>
<stop offset="0.390625" style="stop-color:rgb(0.312805%,63.226318%,75.398254%);stop-opacity:1;"/>
<stop offset="0.394531" style="stop-color:rgb(0.315857%,63.458252%,75.152588%);stop-opacity:1;"/>
<stop offset="0.398438" style="stop-color:rgb(0.318909%,63.691711%,74.906921%);stop-opacity:1;"/>
<stop offset="0.402344" style="stop-color:rgb(0.32196%,63.923645%,74.659729%);stop-opacity:1;"/>
<stop offset="0.40625" style="stop-color:rgb(0.325012%,64.155579%,74.414062%);stop-opacity:1;"/>
<stop offset="0.410156" style="stop-color:rgb(0.328064%,64.387512%,74.16687%);stop-opacity:1;"/>
<stop offset="0.414063" style="stop-color:rgb(0.332642%,64.620972%,73.921204%);stop-opacity:1;"/>
<stop offset="0.417969" style="stop-color:rgb(0.335693%,64.852905%,73.675537%);stop-opacity:1;"/>
<stop offset="0.421875" style="stop-color:rgb(0.338745%,65.086365%,73.429871%);stop-opacity:1;"/>
<stop offset="0.425781" style="stop-color:rgb(0.341797%,65.318298%,73.182678%);stop-opacity:1;"/>
<stop offset="0.429688" style="stop-color:rgb(0.344849%,65.550232%,72.937012%);stop-opacity:1;"/>
<stop offset="0.433594" style="stop-color:rgb(0.3479%,65.782166%,72.689819%);stop-opacity:1;"/>
<stop offset="0.4375" style="stop-color:rgb(0.350952%,66.015625%,72.444153%);stop-opacity:1;"/>
<stop offset="0.441406" style="stop-color:rgb(0.354004%,66.247559%,72.198486%);stop-opacity:1;"/>
<stop offset="0.445313" style="stop-color:rgb(0.357056%,66.481018%,71.95282%);stop-opacity:1;"/>
<stop offset="0.449219" style="stop-color:rgb(0.360107%,66.712952%,71.705627%);stop-opacity:1;"/>
<stop offset="0.453125" style="stop-color:rgb(0.363159%,66.944885%,71.459961%);stop-opacity:1;"/>
<stop offset="0.457031" style="stop-color:rgb(0.366211%,67.176819%,71.212769%);stop-opacity:1;"/>
<stop offset="0.460938" style="stop-color:rgb(0.369263%,67.410278%,70.967102%);stop-opacity:1;"/>
<stop offset="0.464844" style="stop-color:rgb(0.372314%,67.642212%,70.721436%);stop-opacity:1;"/>
<stop offset="0.46875" style="stop-color:rgb(0.375366%,67.875671%,70.475769%);stop-opacity:1;"/>
<stop offset="0.472656" style="stop-color:rgb(0.378418%,68.107605%,70.228577%);stop-opacity:1;"/>
<stop offset="0.476563" style="stop-color:rgb(0.38147%,68.339539%,69.98291%);stop-opacity:1;"/>
<stop offset="0.480469" style="stop-color:rgb(0.384521%,68.571472%,69.735718%);stop-opacity:1;"/>
<stop offset="0.484375" style="stop-color:rgb(0.389099%,68.804932%,69.490051%);stop-opacity:1;"/>
<stop offset="0.488281" style="stop-color:rgb(0.392151%,69.036865%,69.244385%);stop-opacity:1;"/>
<stop offset="0.492188" style="stop-color:rgb(0.395203%,69.270325%,68.998718%);stop-opacity:1;"/>
<stop offset="0.496094" style="stop-color:rgb(0.398254%,69.502258%,68.751526%);stop-opacity:1;"/>
<stop offset="0.5" style="stop-color:rgb(0.401306%,69.734192%,68.505859%);stop-opacity:1;"/>
<stop offset="0.503906" style="stop-color:rgb(0.404358%,69.966125%,68.258667%);stop-opacity:1;"/>
<stop offset="0.507812" style="stop-color:rgb(0.40741%,70.199585%,68.013%);stop-opacity:1;"/>
<stop offset="0.511719" style="stop-color:rgb(0.410461%,70.431519%,67.767334%);stop-opacity:1;"/>
<stop offset="0.515625" style="stop-color:rgb(0.413513%,70.664978%,67.521667%);stop-opacity:1;"/>
<stop offset="0.519531" style="stop-color:rgb(0.416565%,70.896912%,67.274475%);stop-opacity:1;"/>
<stop offset="0.523438" style="stop-color:rgb(0.419617%,71.128845%,67.028809%);stop-opacity:1;"/>
<stop offset="0.527344" style="stop-color:rgb(0.422668%,71.360779%,66.781616%);stop-opacity:1;"/>
<stop offset="0.53125" style="stop-color:rgb(0.42572%,71.594238%,66.53595%);stop-opacity:1;"/>
<stop offset="0.535156" style="stop-color:rgb(0.428772%,71.826172%,66.288757%);stop-opacity:1;"/>
<stop offset="0.539062" style="stop-color:rgb(0.431824%,72.059631%,66.043091%);stop-opacity:1;"/>
<stop offset="0.542969" style="stop-color:rgb(0.434875%,72.291565%,65.797424%);stop-opacity:1;"/>
<stop offset="0.546875" style="stop-color:rgb(0.439453%,72.523499%,65.551758%);stop-opacity:1;"/>
<stop offset="0.550781" style="stop-color:rgb(0.442505%,72.755432%,65.304565%);stop-opacity:1;"/>
<stop offset="0.554688" style="stop-color:rgb(0.445557%,72.988892%,65.058899%);stop-opacity:1;"/>
<stop offset="0.558594" style="stop-color:rgb(0.448608%,73.220825%,64.811707%);stop-opacity:1;"/>
<stop offset="0.5625" style="stop-color:rgb(0.45166%,73.454285%,64.56604%);stop-opacity:1;"/>
<stop offset="0.566406" style="stop-color:rgb(0.454712%,73.686218%,64.320374%);stop-opacity:1;"/>
<stop offset="0.570313" style="stop-color:rgb(0.457764%,73.918152%,64.074707%);stop-opacity:1;"/>
<stop offset="0.574219" style="stop-color:rgb(0.460815%,74.150085%,63.827515%);stop-opacity:1;"/>
<stop offset="0.578125" style="stop-color:rgb(0.463867%,74.383545%,63.581848%);stop-opacity:1;"/>
<stop offset="0.582031" style="stop-color:rgb(0.466919%,74.615479%,63.334656%);stop-opacity:1;"/>
<stop offset="0.585938" style="stop-color:rgb(0.469971%,74.848938%,63.088989%);stop-opacity:1;"/>
<stop offset="0.589844" style="stop-color:rgb(0.473022%,75.080872%,62.843323%);stop-opacity:1;"/>
<stop offset="0.59375" style="stop-color:rgb(0.476074%,75.312805%,62.597656%);stop-opacity:1;"/>
<stop offset="0.597656" style="stop-color:rgb(0.479126%,75.544739%,62.350464%);stop-opacity:1;"/>
<stop offset="0.601563" style="stop-color:rgb(0.482178%,75.778198%,62.104797%);stop-opacity:1;"/>
<stop offset="0.605469" style="stop-color:rgb(0.485229%,76.010132%,61.857605%);stop-opacity:1;"/>
<stop offset="0.609375" style="stop-color:rgb(0.488281%,76.243591%,61.611938%);stop-opacity:1;"/>
<stop offset="0.613281" style="stop-color:rgb(0.491333%,76.475525%,61.366272%);stop-opacity:1;"/>
<stop offset="0.617188" style="stop-color:rgb(0.495911%,76.707458%,61.120605%);stop-opacity:1;"/>
<stop offset="0.621094" style="stop-color:rgb(0.498962%,76.939392%,60.873413%);stop-opacity:1;"/>
<stop offset="0.625" style="stop-color:rgb(0.502014%,77.172852%,60.627747%);stop-opacity:1;"/>
<stop offset="0.628906" style="stop-color:rgb(0.505066%,77.404785%,60.380554%);stop-opacity:1;"/>
<stop offset="0.632813" style="stop-color:rgb(0.508118%,77.638245%,60.134888%);stop-opacity:1;"/>
<stop offset="0.636719" style="stop-color:rgb(0.511169%,77.870178%,59.889221%);stop-opacity:1;"/>
<stop offset="0.640625" style="stop-color:rgb(0.514221%,78.102112%,59.643555%);stop-opacity:1;"/>
<stop offset="0.644531" style="stop-color:rgb(0.517273%,78.334045%,59.396362%);stop-opacity:1;"/>
<stop offset="0.648438" style="stop-color:rgb(0.520325%,78.567505%,59.150696%);stop-opacity:1;"/>
<stop offset="0.652344" style="stop-color:rgb(0.523376%,78.799438%,58.903503%);stop-opacity:1;"/>
<stop offset="0.65625" style="stop-color:rgb(0.526428%,79.032898%,58.657837%);stop-opacity:1;"/>
<stop offset="0.660156" style="stop-color:rgb(0.52948%,79.264832%,58.41217%);stop-opacity:1;"/>
<stop offset="0.664063" style="stop-color:rgb(0.532532%,79.496765%,58.166504%);stop-opacity:1;"/>
<stop offset="0.667969" style="stop-color:rgb(0.535583%,79.728699%,57.919312%);stop-opacity:1;"/>
<stop offset="0.671875" style="stop-color:rgb(0.538635%,79.962158%,57.673645%);stop-opacity:1;"/>
<stop offset="0.675781" style="stop-color:rgb(0.541687%,80.194092%,57.426453%);stop-opacity:1;"/>
<stop offset="0.679688" style="stop-color:rgb(0.546265%,80.427551%,57.180786%);stop-opacity:1;"/>
<stop offset="0.683594" style="stop-color:rgb(0.549316%,80.659485%,56.933594%);stop-opacity:1;"/>
<stop offset="0.6875" style="stop-color:rgb(0.552368%,80.892944%,56.687927%);stop-opacity:1;"/>
<stop offset="0.691406" style="stop-color:rgb(0.55542%,81.124878%,56.442261%);stop-opacity:1;"/>
<stop offset="0.695313" style="stop-color:rgb(0.558472%,81.356812%,56.196594%);stop-opacity:1;"/>
<stop offset="0.699219" style="stop-color:rgb(0.561523%,81.588745%,55.949402%);stop-opacity:1;"/>
<stop offset="0.703125" style="stop-color:rgb(0.564575%,81.822205%,55.703735%);stop-opacity:1;"/>
<stop offset="0.707031" style="stop-color:rgb(0.567627%,82.054138%,55.456543%);stop-opacity:1;"/>
<stop offset="0.710938" style="stop-color:rgb(0.570679%,82.287598%,55.210876%);stop-opacity:1;"/>
<stop offset="0.714844" style="stop-color:rgb(0.57373%,82.519531%,54.96521%);stop-opacity:1;"/>
<stop offset="0.71875" style="stop-color:rgb(0.576782%,82.751465%,54.719543%);stop-opacity:1;"/>
<stop offset="0.722656" style="stop-color:rgb(0.579834%,82.983398%,54.472351%);stop-opacity:1;"/>
<stop offset="0.726563" style="stop-color:rgb(0.582886%,83.216858%,54.226685%);stop-opacity:1;"/>
<stop offset="0.730469" style="stop-color:rgb(0.585938%,83.448792%,53.979492%);stop-opacity:1;"/>
<stop offset="0.734375" style="stop-color:rgb(0.588989%,83.682251%,53.733826%);stop-opacity:1;"/>
<stop offset="0.738281" style="stop-color:rgb(0.592041%,83.914185%,53.488159%);stop-opacity:1;"/>
<stop offset="0.742188" style="stop-color:rgb(0.595093%,84.146118%,53.242493%);stop-opacity:1;"/>
<stop offset="0.746094" style="stop-color:rgb(0.598145%,84.378052%,52.9953%);stop-opacity:1;"/>
<stop offset="0.75" style="stop-color:rgb(0.602722%,84.611511%,52.749634%);stop-opacity:1;"/>
<stop offset="0.753906" style="stop-color:rgb(0.605774%,84.843445%,52.502441%);stop-opacity:1;"/>
<stop offset="0.757813" style="stop-color:rgb(0.608826%,85.076904%,52.256775%);stop-opacity:1;"/>
<stop offset="0.761719" style="stop-color:rgb(0.611877%,85.308838%,52.011108%);stop-opacity:1;"/>
<stop offset="0.765625" style="stop-color:rgb(0.614929%,85.540771%,51.765442%);stop-opacity:1;"/>
<stop offset="0.769531" style="stop-color:rgb(0.617981%,85.772705%,51.51825%);stop-opacity:1;"/>
<stop offset="0.773438" style="stop-color:rgb(0.621033%,86.006165%,51.272583%);stop-opacity:1;"/>
<stop offset="0.777344" style="stop-color:rgb(0.624084%,86.238098%,51.025391%);stop-opacity:1;"/>
<stop offset="0.78125" style="stop-color:rgb(0.627136%,86.471558%,50.779724%);stop-opacity:1;"/>
<stop offset="0.785156" style="stop-color:rgb(0.630188%,86.703491%,50.534058%);stop-opacity:1;"/>
<stop offset="0.789063" style="stop-color:rgb(0.63324%,86.935425%,50.288391%);stop-opacity:1;"/>
<stop offset="0.792969" style="stop-color:rgb(0.636292%,87.167358%,50.041199%);stop-opacity:1;"/>
<stop offset="0.796875" style="stop-color:rgb(0.639343%,87.400818%,49.795532%);stop-opacity:1;"/>
<stop offset="0.800781" style="stop-color:rgb(0.642395%,87.632751%,49.54834%);stop-opacity:1;"/>
<stop offset="0.804688" style="stop-color:rgb(0.645447%,87.866211%,49.302673%);stop-opacity:1;"/>
<stop offset="0.808594" style="stop-color:rgb(0.648499%,88.098145%,49.055481%);stop-opacity:1;"/>
<stop offset="0.8125" style="stop-color:rgb(0.653076%,88.330078%,48.809814%);stop-opacity:1;"/>
<stop offset="0.816406" style="stop-color:rgb(0.656128%,88.562012%,48.564148%);stop-opacity:1;"/>
<stop offset="0.820313" style="stop-color:rgb(0.65918%,88.795471%,48.318481%);stop-opacity:1;"/>
<stop offset="0.824219" style="stop-color:rgb(0.662231%,89.027405%,48.071289%);stop-opacity:1;"/>
<stop offset="0.828125" style="stop-color:rgb(0.665283%,89.260864%,47.825623%);stop-opacity:1;"/>
<stop offset="0.832031" style="stop-color:rgb(0.668335%,89.492798%,47.57843%);stop-opacity:1;"/>
<stop offset="0.835938" style="stop-color:rgb(0.671387%,89.724731%,47.332764%);stop-opacity:1;"/>
<stop offset="0.839844" style="stop-color:rgb(0.674438%,89.956665%,47.087097%);stop-opacity:1;"/>
<stop offset="0.84375" style="stop-color:rgb(0.67749%,90.190125%,46.841431%);stop-opacity:1;"/>
<stop offset="0.847656" style="stop-color:rgb(0.680542%,90.422058%,46.594238%);stop-opacity:1;"/>
<stop offset="0.851563" style="stop-color:rgb(0.683594%,90.655518%,46.348572%);stop-opacity:1;"/>
<stop offset="0.855469" style="stop-color:rgb(0.686646%,90.887451%,46.101379%);stop-opacity:1;"/>
<stop offset="0.859375" style="stop-color:rgb(0.689697%,91.119385%,45.855713%);stop-opacity:1;"/>
<stop offset="0.863281" style="stop-color:rgb(0.692749%,91.351318%,45.610046%);stop-opacity:1;"/>
<stop offset="0.867188" style="stop-color:rgb(0.695801%,91.584778%,45.36438%);stop-opacity:1;"/>
<stop offset="0.871094" style="stop-color:rgb(0.698853%,91.816711%,45.117188%);stop-opacity:1;"/>
<stop offset="0.875" style="stop-color:rgb(0.701904%,92.050171%,44.871521%);stop-opacity:1;"/>
<stop offset="0.878906" style="stop-color:rgb(0.704956%,92.282104%,44.624329%);stop-opacity:1;"/>
<stop offset="0.882812" style="stop-color:rgb(0.709534%,92.514038%,44.378662%);stop-opacity:1;"/>
<stop offset="0.886719" style="stop-color:rgb(0.712585%,92.745972%,44.132996%);stop-opacity:1;"/>
<stop offset="0.890625" style="stop-color:rgb(0.715637%,92.979431%,43.887329%);stop-opacity:1;"/>
<stop offset="0.894531" style="stop-color:rgb(0.718689%,93.211365%,43.640137%);stop-opacity:1;"/>
<stop offset="0.898438" style="stop-color:rgb(0.721741%,93.444824%,43.39447%);stop-opacity:1;"/>
<stop offset="0.902344" style="stop-color:rgb(0.724792%,93.676758%,43.147278%);stop-opacity:1;"/>
<stop offset="0.90625" style="stop-color:rgb(0.727844%,93.908691%,42.901611%);stop-opacity:1;"/>
<stop offset="0.910156" style="stop-color:rgb(0.730896%,94.140625%,42.655945%);stop-opacity:1;"/>
<stop offset="0.914062" style="stop-color:rgb(0.733948%,94.374084%,42.410278%);stop-opacity:1;"/>
<stop offset="0.917969" style="stop-color:rgb(0.737%,94.606018%,42.163086%);stop-opacity:1;"/>
<stop offset="0.921875" style="stop-color:rgb(0.740051%,94.839478%,41.917419%);stop-opacity:1;"/>
<stop offset="0.925781" style="stop-color:rgb(0.743103%,95.071411%,41.670227%);stop-opacity:1;"/>
<stop offset="0.929688" style="stop-color:rgb(0.746155%,95.303345%,41.424561%);stop-opacity:1;"/>
<stop offset="0.933594" style="stop-color:rgb(0.749207%,95.535278%,41.178894%);stop-opacity:1;"/>
<stop offset="0.9375" style="stop-color:rgb(0.752258%,95.768738%,40.933228%);stop-opacity:1;"/>
<stop offset="0.941406" style="stop-color:rgb(0.75531%,96.000671%,40.686035%);stop-opacity:1;"/>
<stop offset="0.945312" style="stop-color:rgb(0.759888%,96.234131%,40.440369%);stop-opacity:1;"/>
<stop offset="0.949219" style="stop-color:rgb(0.762939%,96.466064%,40.193176%);stop-opacity:1;"/>
<stop offset="0.953125" style="stop-color:rgb(0.765991%,96.697998%,39.94751%);stop-opacity:1;"/>
<stop offset="0.957031" style="stop-color:rgb(0.769043%,96.929932%,39.700317%);stop-opacity:1;"/>
<stop offset="0.960938" style="stop-color:rgb(0.772095%,97.163391%,39.454651%);stop-opacity:1;"/>
<stop offset="0.964844" style="stop-color:rgb(0.775146%,97.395325%,39.208984%);stop-opacity:1;"/>
<stop offset="0.96875" style="stop-color:rgb(0.778198%,97.628784%,38.963318%);stop-opacity:1;"/>
<stop offset="0.972656" style="stop-color:rgb(0.78125%,97.860718%,38.716125%);stop-opacity:1;"/>
<stop offset="0.976562" style="stop-color:rgb(0.784302%,98.092651%,38.470459%);stop-opacity:1;"/>
<stop offset="0.980469" style="stop-color:rgb(0.787354%,98.324585%,38.223267%);stop-opacity:1;"/>
<stop offset="0.984375" style="stop-color:rgb(0.790405%,98.558044%,37.9776%);stop-opacity:1;"/>
<stop offset="0.988281" style="stop-color:rgb(0.793457%,98.789978%,37.731934%);stop-opacity:1;"/>
<stop offset="0.992188" style="stop-color:rgb(0.796509%,99.023438%,37.486267%);stop-opacity:1;"/>
<stop offset="1" style="stop-color:rgb(0.798035%,99.110413%,37.391663%);stop-opacity:1;"/>
</linearGradient>
<clipPath id="clip3">
  <path d="M 160 81 L 231 81 L 231 153 L 160 153 Z M 160 81 "/>
</clipPath>
<clipPath id="clip4">
  <path d="M 230.90625 117.113281 C 230.90625 118.273438 230.847656 119.433594 230.734375 120.589844 C 230.621094 121.746094 230.453125 122.894531 230.226562 124.03125 C 230 125.171875 229.71875 126.296875 229.378906 127.40625 C 229.042969 128.519531 228.652344 129.609375 228.207031 130.683594 C 227.765625 131.757812 227.269531 132.804688 226.722656 133.832031 C 226.175781 134.855469 225.578125 135.847656 224.933594 136.816406 C 224.289062 137.78125 223.597656 138.710938 222.859375 139.609375 C 222.125 140.507812 221.34375 141.367188 220.523438 142.1875 C 219.703125 143.011719 218.84375 143.789062 217.949219 144.527344 C 217.050781 145.261719 216.117188 145.953125 215.152344 146.597656 C 214.1875 147.246094 213.195312 147.839844 212.167969 148.386719 C 211.144531 148.9375 210.097656 149.429688 209.023438 149.875 C 207.953125 150.320312 206.859375 150.710938 205.75 151.046875 C 204.640625 151.386719 203.515625 151.667969 202.375 151.894531 C 201.238281 152.121094 200.089844 152.289062 198.933594 152.40625 C 197.78125 152.519531 196.621094 152.574219 195.460938 152.574219 C 194.300781 152.574219 193.140625 152.519531 191.988281 152.40625 C 190.832031 152.289062 189.683594 152.121094 188.546875 151.894531 C 187.40625 151.667969 186.28125 151.386719 185.171875 151.046875 C 184.058594 150.710938 182.96875 150.320312 181.894531 149.875 C 180.824219 149.429688 179.777344 148.9375 178.75 148.386719 C 177.726562 147.839844 176.734375 147.246094 175.769531 146.597656 C 174.804688 145.953125 173.871094 145.261719 172.972656 144.527344 C 172.078125 143.789062 171.21875 143.011719 170.398438 142.1875 C 169.574219 141.367188 168.796875 140.507812 168.0625 139.609375 C 167.324219 138.710938 166.632812 137.78125 165.988281 136.816406 C 165.34375 135.847656 164.746094 134.855469 164.199219 133.832031 C 163.652344 132.804688 163.15625 131.757812 162.714844 130.683594 C 162.269531 129.609375 161.878906 128.519531 161.542969 127.40625 C 161.203125 126.296875 160.921875 125.171875 160.695312 124.03125 C 160.46875 122.894531 160.300781 121.746094 160.1875 120.589844 C 160.070312 119.433594 160.015625 118.273438 160.015625 117.113281 C 160.015625 115.953125 160.070312 114.792969 160.1875 113.636719 C 160.300781 112.480469 160.46875 111.335938 160.695312 110.195312 C 160.921875 109.054688 161.203125 107.929688 161.542969 106.820312 C 161.878906 105.707031 162.269531 104.617188 162.714844 103.542969 C 163.15625 102.46875 163.652344 101.421875 164.199219 100.398438 C 164.746094 99.371094 165.34375 98.378906 165.988281 97.410156 C 166.632812 96.445312 167.324219 95.515625 168.0625 94.617188 C 168.796875 93.71875 169.574219 92.859375 170.398438 92.039062 C 171.21875 91.21875 172.078125 90.4375 172.972656 89.699219 C 173.871094 88.964844 174.804688 88.273438 175.769531 87.628906 C 176.734375 86.984375 177.726562 86.386719 178.75 85.839844 C 179.777344 85.292969 180.824219 84.796875 181.894531 84.351562 C 182.96875 83.90625 184.058594 83.515625 185.171875 83.179688 C 186.28125 82.839844 187.40625 82.558594 188.546875 82.332031 C 189.683594 82.105469 190.832031 81.9375 191.988281 81.824219 C 193.140625 81.707031 194.300781 81.652344 195.460938 81.652344 C 196.621094 81.652344 197.78125 81.707031 198.933594 81.824219 C 200.089844 81.9375 201.238281 82.105469 202.375 82.332031 C 203.515625 82.558594 204.640625 82.839844 205.75 83.179688 C 206.859375 83.515625 207.953125 83.90625 209.023438 84.351562 C 210.097656 84.796875 211.144531 85.292969 212.167969 85.839844 C 213.195312 86.386719 214.1875 86.984375 215.152344 87.628906 C 216.117188 88.273438 217.050781 88.964844 217.949219 89.699219 C 218.84375 90.4375 219.703125 91.21875 220.523438 92.039062 C 221.34375 92.859375 222.125 93.71875 222.859375 94.617188 C 223.597656 95.515625 224.289062 96.445312 224.933594 97.410156 C 225.578125 98.378906 226.175781 99.371094 226.722656 100.398438 C 227.269531 101.421875 227.765625 102.46875 228.207031 103.542969 C 228.652344 104.617188 229.042969 105.707031 229.378906 106.820312 C 229.71875 107.929688 230 109.054688 230.226562 110.195312 C 230.453125 111.335938 230.621094 112.480469 230.734375 113.636719 C 230.847656 114.792969 230.90625 115.953125 230.90625 117.113281 Z M 230.90625 117.113281 "/>
</clipPath>
<linearGradient id="linear1" gradientUnits="userSpaceOnUse" x1="53.400002" y1="86.113998" x2="77.199997" y2="86.113998" gradientTransform="matrix(2.978637,0,0,2.979988,0.955738,0.0000199606)">
<stop offset="0" style="stop-color:rgb(0.172424%,52.844238%,86.393738%);stop-opacity:1;"/>
<stop offset="0.0625" style="stop-color:rgb(0.17395%,53.022766%,86.204529%);stop-opacity:1;"/>
<stop offset="0.125" style="stop-color:rgb(0.180054%,53.381348%,85.826111%);stop-opacity:1;"/>
<stop offset="0.1875" style="stop-color:rgb(0.184631%,53.738403%,85.446167%);stop-opacity:1;"/>
<stop offset="0.25" style="stop-color:rgb(0.189209%,54.096985%,85.067749%);stop-opacity:1;"/>
<stop offset="0.3125" style="stop-color:rgb(0.193787%,54.454041%,84.689331%);stop-opacity:1;"/>
<stop offset="0.375" style="stop-color:rgb(0.198364%,54.812622%,84.309387%);stop-opacity:1;"/>
<stop offset="0.4375" style="stop-color:rgb(0.202942%,55.169678%,83.930969%);stop-opacity:1;"/>
<stop offset="0.5" style="stop-color:rgb(0.209045%,55.528259%,83.551025%);stop-opacity:1;"/>
<stop offset="0.5625" style="stop-color:rgb(0.213623%,55.885315%,83.172607%);stop-opacity:1;"/>
<stop offset="0.625" style="stop-color:rgb(0.218201%,56.243896%,82.794189%);stop-opacity:1;"/>
<stop offset="0.6875" style="stop-color:rgb(0.222778%,56.600952%,82.414246%);stop-opacity:1;"/>
<stop offset="0.75" style="stop-color:rgb(0.227356%,56.959534%,82.035828%);stop-opacity:1;"/>
<stop offset="0.8125" style="stop-color:rgb(0.231934%,57.316589%,81.65741%);stop-opacity:1;"/>
<stop offset="0.875" style="stop-color:rgb(0.238037%,57.675171%,81.277466%);stop-opacity:1;"/>
<stop offset="0.9375" style="stop-color:rgb(0.242615%,58.032227%,80.899048%);stop-opacity:1;"/>
<stop offset="1" style="stop-color:rgb(0.247192%,58.390808%,80.519104%);stop-opacity:1;"/>
</linearGradient>
<clipPath id="clip5">
  <path d="M 367 0 L 410 0 L 410 43 L 367 43 Z M 367 0 "/>
</clipPath>
<clipPath id="clip6">
  <path d="M 409.921875 21.15625 C 409.921875 21.851562 409.890625 22.542969 409.820312 23.230469 C 409.753906 23.921875 409.652344 24.605469 409.515625 25.285156 C 409.382812 25.964844 409.214844 26.636719 409.011719 27.300781 C 408.8125 27.960938 408.578125 28.613281 408.3125 29.253906 C 408.046875 29.894531 407.75 30.519531 407.425781 31.132812 C 407.097656 31.742188 406.742188 32.335938 406.359375 32.914062 C 405.972656 33.488281 405.5625 34.042969 405.121094 34.582031 C 404.683594 35.117188 404.21875 35.628906 403.726562 36.117188 C 403.238281 36.609375 402.726562 37.074219 402.191406 37.511719 C 401.65625 37.953125 401.097656 38.363281 400.523438 38.75 C 399.949219 39.136719 399.355469 39.492188 398.742188 39.816406 C 398.132812 40.144531 397.507812 40.441406 396.867188 40.707031 C 396.226562 40.96875 395.574219 41.203125 394.914062 41.40625 C 394.25 41.605469 393.578125 41.773438 392.898438 41.910156 C 392.222656 42.042969 391.535156 42.144531 390.847656 42.214844 C 390.15625 42.28125 389.46875 42.316406 388.773438 42.316406 C 388.082031 42.316406 387.390625 42.28125 386.703125 42.214844 C 386.011719 42.144531 385.328125 42.042969 384.648438 41.910156 C 383.96875 41.773438 383.296875 41.605469 382.636719 41.40625 C 381.972656 41.203125 381.320312 40.96875 380.679688 40.707031 C 380.042969 40.441406 379.414062 40.144531 378.804688 39.816406 C 378.195312 39.492188 377.601562 39.136719 377.023438 38.75 C 376.449219 38.363281 375.894531 37.953125 375.359375 37.511719 C 374.824219 37.074219 374.308594 36.609375 373.820312 36.117188 C 373.332031 35.628906 372.867188 35.117188 372.425781 34.582031 C 371.988281 34.042969 371.574219 33.488281 371.191406 32.914062 C 370.804688 32.335938 370.449219 31.742188 370.125 31.132812 C 369.796875 30.519531 369.5 29.894531 369.234375 29.253906 C 368.96875 28.613281 368.738281 27.960938 368.535156 27.300781 C 368.335938 26.636719 368.167969 25.964844 368.03125 25.285156 C 367.898438 24.605469 367.796875 23.921875 367.726562 23.230469 C 367.660156 22.542969 367.625 21.851562 367.625 21.15625 C 367.625 20.464844 367.660156 19.773438 367.726562 19.085938 C 367.796875 18.394531 367.898438 17.710938 368.03125 17.03125 C 368.167969 16.351562 368.335938 15.679688 368.535156 15.015625 C 368.738281 14.351562 368.96875 13.703125 369.234375 13.0625 C 369.5 12.421875 369.796875 11.796875 370.125 11.183594 C 370.449219 10.574219 370.804688 9.980469 371.191406 9.402344 C 371.574219 8.828125 371.988281 8.269531 372.425781 7.734375 C 372.867188 7.199219 373.332031 6.6875 373.820312 6.195312 C 374.308594 5.707031 374.824219 5.242188 375.359375 4.800781 C 375.894531 4.363281 376.449219 3.949219 377.023438 3.566406 C 377.601562 3.179688 378.195312 2.824219 378.804688 2.5 C 379.414062 2.171875 380.042969 1.875 380.679688 1.609375 C 381.320312 1.34375 381.972656 1.113281 382.636719 0.910156 C 383.296875 0.710938 383.96875 0.542969 384.648438 0.40625 C 385.328125 0.269531 386.011719 0.167969 386.703125 0.101562 C 387.390625 0.0351562 388.082031 0 388.773438 0 C 389.46875 0 390.15625 0.0351562 390.847656 0.101562 C 391.535156 0.167969 392.222656 0.269531 392.898438 0.40625 C 393.578125 0.542969 394.25 0.710938 394.914062 0.910156 C 395.574219 1.113281 396.226562 1.34375 396.867188 1.609375 C 397.507812 1.875 398.132812 2.171875 398.742188 2.5 C 399.355469 2.824219 399.949219 3.179688 400.523438 3.566406 C 401.097656 3.949219 401.65625 4.363281 402.191406 4.800781 C 402.726562 5.242188 403.238281 5.707031 403.726562 6.195312 C 404.21875 6.6875 404.683594 7.199219 405.121094 7.734375 C 405.5625 8.269531 405.972656 8.828125 406.359375 9.402344 C 406.742188 9.980469 407.097656 10.574219 407.425781 11.183594 C 407.75 11.796875 408.046875 12.421875 408.3125 13.0625 C 408.578125 13.703125 408.8125 14.351562 409.011719 15.015625 C 409.214844 15.679688 409.382812 16.351562 409.515625 17.03125 C 409.652344 17.710938 409.753906 18.394531 409.820312 19.085938 C 409.890625 19.773438 409.921875 20.464844 409.921875 21.15625 Z M 409.921875 21.15625 "/>
</clipPath>
<linearGradient id="linear2" gradientUnits="userSpaceOnUse" x1="123.099998" y1="86.113998" x2="137.300018" y2="86.113998" gradientTransform="matrix(2.978637,0,0,2.979988,0.955738,0.0000199606)">
<stop offset="0" style="stop-color:rgb(0.39978%,69.610596%,68.637085%);stop-opacity:1;"/>
<stop offset="0.0625" style="stop-color:rgb(0.401306%,69.717407%,68.522644%);stop-opacity:1;"/>
<stop offset="0.125" style="stop-color:rgb(0.404358%,69.93103%,68.296814%);stop-opacity:1;"/>
<stop offset="0.1875" style="stop-color:rgb(0.405884%,70.144653%,68.070984%);stop-opacity:1;"/>
<stop offset="0.25" style="stop-color:rgb(0.408936%,70.358276%,67.845154%);stop-opacity:1;"/>
<stop offset="0.3125" style="stop-color:rgb(0.411987%,70.571899%,67.619324%);stop-opacity:1;"/>
<stop offset="0.375" style="stop-color:rgb(0.415039%,70.785522%,67.393494%);stop-opacity:1;"/>
<stop offset="0.4375" style="stop-color:rgb(0.418091%,70.999146%,67.166138%);stop-opacity:1;"/>
<stop offset="0.5" style="stop-color:rgb(0.421143%,71.212769%,66.940308%);stop-opacity:1;"/>
<stop offset="0.5625" style="stop-color:rgb(0.424194%,71.426392%,66.714478%);stop-opacity:1;"/>
<stop offset="0.625" style="stop-color:rgb(0.427246%,71.640015%,66.488647%);stop-opacity:1;"/>
<stop offset="0.6875" style="stop-color:rgb(0.430298%,71.852112%,66.262817%);stop-opacity:1;"/>
<stop offset="0.75" style="stop-color:rgb(0.431824%,72.065735%,66.035461%);stop-opacity:1;"/>
<stop offset="0.8125" style="stop-color:rgb(0.434875%,72.279358%,65.809631%);stop-opacity:1;"/>
<stop offset="0.875" style="stop-color:rgb(0.437927%,72.492981%,65.583801%);stop-opacity:1;"/>
<stop offset="0.9375" style="stop-color:rgb(0.440979%,72.706604%,65.357971%);stop-opacity:1;"/>
<stop offset="1" style="stop-color:rgb(0.444031%,72.920227%,65.132141%);stop-opacity:1;"/>
</linearGradient>
<clipPath id="clip7">
  <path d="M 681 274 L 748.511719 274 L 748.511719 342 L 681 342 Z M 681 274 "/>
</clipPath>
<clipPath id="clip8">
  <path d="M 748.59375 307.832031 C 748.59375 308.925781 748.539062 310.015625 748.433594 311.105469 C 748.324219 312.191406 748.164062 313.273438 747.953125 314.34375 C 747.738281 315.417969 747.472656 316.476562 747.15625 317.519531 C 746.839844 318.566406 746.472656 319.59375 746.054688 320.605469 C 745.636719 321.613281 745.167969 322.601562 744.65625 323.566406 C 744.140625 324.53125 743.578125 325.464844 742.972656 326.375 C 742.363281 327.285156 741.714844 328.160156 741.019531 329.007812 C 740.328125 329.851562 739.59375 330.660156 738.824219 331.433594 C 738.050781 332.207031 737.242188 332.9375 736.398438 333.632812 C 735.550781 334.324219 734.675781 334.976562 733.765625 335.582031 C 732.859375 336.191406 731.921875 336.753906 730.957031 337.269531 C 729.996094 337.78125 729.007812 338.25 728 338.667969 C 726.988281 339.085938 725.960938 339.453125 724.917969 339.769531 C 723.871094 340.089844 722.8125 340.355469 721.742188 340.566406 C 720.667969 340.78125 719.589844 340.941406 718.503906 341.046875 C 717.414062 341.15625 716.324219 341.207031 715.234375 341.207031 C 714.140625 341.207031 713.050781 341.15625 711.964844 341.046875 C 710.875 340.941406 709.796875 340.78125 708.722656 340.566406 C 707.652344 340.355469 706.59375 340.089844 705.546875 339.773438 C 704.503906 339.453125 703.476562 339.085938 702.464844 338.667969 C 701.457031 338.25 700.46875 337.78125 699.507812 337.269531 C 698.542969 336.753906 697.605469 336.191406 696.699219 335.582031 C 695.789062 334.976562 694.914062 334.324219 694.070312 333.632812 C 693.222656 332.9375 692.414062 332.207031 691.644531 331.433594 C 690.871094 330.660156 690.136719 329.851562 689.445312 329.007812 C 688.75 328.160156 688.101562 327.285156 687.496094 326.375 C 686.886719 325.464844 686.328125 324.53125 685.8125 323.566406 C 685.296875 322.601562 684.828125 321.613281 684.410156 320.605469 C 683.992188 319.59375 683.625 318.566406 683.308594 317.519531 C 682.992188 316.476562 682.726562 315.417969 682.511719 314.34375 C 682.300781 313.273438 682.140625 312.191406 682.03125 311.105469 C 681.925781 310.015625 681.871094 308.925781 681.871094 307.832031 C 681.871094 306.738281 681.925781 305.648438 682.03125 304.5625 C 682.140625 303.472656 682.300781 302.394531 682.511719 301.320312 C 682.726562 300.25 682.992188 299.191406 683.308594 298.144531 C 683.625 297.097656 683.992188 296.070312 684.410156 295.058594 C 684.828125 294.050781 685.296875 293.0625 685.8125 292.097656 C 686.328125 291.136719 686.886719 290.199219 687.496094 289.289062 C 688.101562 288.382812 688.75 287.503906 689.445312 286.660156 C 690.136719 285.8125 690.871094 285.003906 691.644531 284.234375 C 692.414062 283.460938 693.222656 282.726562 694.070312 282.03125 C 694.914062 281.339844 695.789062 280.6875 696.699219 280.082031 C 697.605469 279.472656 698.542969 278.914062 699.507812 278.398438 C 700.46875 277.882812 701.457031 277.414062 702.464844 276.996094 C 703.476562 276.578125 704.503906 276.210938 705.546875 275.894531 C 706.59375 275.578125 707.652344 275.3125 708.722656 275.097656 C 709.796875 274.886719 710.875 274.726562 711.964844 274.617188 C 713.050781 274.511719 714.140625 274.457031 715.234375 274.457031 C 716.324219 274.457031 717.414062 274.511719 718.503906 274.617188 C 719.589844 274.726562 720.667969 274.886719 721.742188 275.097656 C 722.8125 275.3125 723.871094 275.578125 724.917969 275.894531 C 725.960938 276.210938 726.988281 276.578125 728 276.996094 C 729.007812 277.414062 729.996094 277.882812 730.960938 278.398438 C 731.921875 278.914062 732.859375 279.472656 733.765625 280.082031 C 734.675781 280.6875 735.550781 281.339844 736.398438 282.03125 C 737.242188 282.726562 738.050781 283.460938 738.824219 284.234375 C 739.59375 285.003906 740.328125 285.8125 741.019531 286.660156 C 741.714844 287.503906 742.363281 288.382812 742.972656 289.289062 C 743.578125 290.199219 744.140625 291.136719 744.65625 292.097656 C 745.167969 293.0625 745.636719 294.050781 746.054688 295.058594 C 746.472656 296.070312 746.839844 297.097656 747.15625 298.144531 C 747.472656 299.191406 747.738281 300.25 747.953125 301.320312 C 748.164062 302.394531 748.324219 303.472656 748.433594 304.5625 C 748.539062 305.648438 748.59375 306.738281 748.59375 307.832031 Z M 748.59375 307.832031 "/>
</clipPath>
<linearGradient id="linear3" gradientUnits="userSpaceOnUse" x1="228.600011" y1="86.113998" x2="250.973027" y2="86.113998" gradientTransform="matrix(2.978637,0,0,2.979988,0.955738,0.0000199606)">
<stop offset="0" style="stop-color:rgb(0.743103%,94.989014%,41.757202%);stop-opacity:1;"/>
<stop offset="0.0625" style="stop-color:rgb(0.744629%,95.15686%,41.578674%);stop-opacity:1;"/>
<stop offset="0.125" style="stop-color:rgb(0.747681%,95.49408%,41.223145%);stop-opacity:1;"/>
<stop offset="0.1875" style="stop-color:rgb(0.752258%,95.829773%,40.866089%);stop-opacity:1;"/>
<stop offset="0.25" style="stop-color:rgb(0.756836%,96.166992%,40.510559%);stop-opacity:1;"/>
<stop offset="0.3125" style="stop-color:rgb(0.761414%,96.502686%,40.153503%);stop-opacity:1;"/>
<stop offset="0.375" style="stop-color:rgb(0.765991%,96.839905%,39.797974%);stop-opacity:1;"/>
<stop offset="0.4375" style="stop-color:rgb(0.770569%,97.175598%,39.442444%);stop-opacity:1;"/>
<stop offset="0.5" style="stop-color:rgb(0.775146%,97.511292%,39.085388%);stop-opacity:1;"/>
<stop offset="0.5625" style="stop-color:rgb(0.779724%,97.848511%,38.729858%);stop-opacity:1;"/>
<stop offset="0.625" style="stop-color:rgb(0.784302%,98.184204%,38.372803%);stop-opacity:1;"/>
<stop offset="0.6875" style="stop-color:rgb(0.788879%,98.521423%,38.017273%);stop-opacity:1;"/>
<stop offset="0.75" style="stop-color:rgb(0.793457%,98.857117%,37.660217%);stop-opacity:1;"/>
<stop offset="1" style="stop-color:rgb(0.798035%,99.111938%,37.390137%);stop-opacity:1;"/>
</linearGradient>
</defs>
<g id="surface1">
<g clip-path="url(#clip1)" clip-rule="nonzero">
<g clip-path="url(#clip2)" clip-rule="nonzero">
<path style=" stroke:none;fill-rule:nonzero;fill:url(#linear0);" d="M 0.738281 5.066406 L 0.738281 506.003906 L 737.574219 506.003906 L 737.574219 5.066406 Z M 0.738281 5.066406 "/>
</g>
</g>
<g clip-path="url(#clip3)" clip-rule="nonzero">
<g clip-path="url(#clip4)" clip-rule="nonzero">
<path style=" stroke:none;fill-rule:nonzero;fill:url(#linear1);" d="M 160.015625 81.652344 L 160.015625 152.574219 L 230.90625 152.574219 L 230.90625 81.652344 Z M 160.015625 81.652344 "/>
</g>
</g>
<g clip-path="url(#clip5)" clip-rule="nonzero">
<g clip-path="url(#clip6)" clip-rule="nonzero">
<path style=" stroke:none;fill-rule:nonzero;fill:url(#linear2);" d="M 367.625 0 L 367.625 42.316406 L 409.921875 42.316406 L 409.921875 0 Z M 367.625 0 "/>
</g>
</g>
<g clip-path="url(#clip7)" clip-rule="nonzero">
<g clip-path="url(#clip8)" clip-rule="nonzero">
<path style=" stroke:none;fill-rule:nonzero;fill:url(#linear3);" d="M 681.871094 274.457031 L 681.871094 341.207031 L 748.511719 341.207031 L 748.511719 274.457031 Z M 681.871094 274.457031 "/>
</g>
</g>
</g>
</svg>
